<svg
  xmlns="http://www.w3.org/2000/svg"
  width="40px"
  height="40px"
  viewBox="0 0 40 40"
  fillRule="nonzero"
>
<path d="M 24.003906 6.667969 C 24.347656 6.667969 24.78125 6.78125 25.132812 6.886719 C 26.34375 7.253906 27.78125 7.707031 28.804688 8.667969 C 29.753906 9.558594 30.492188 11.113281 31.0625 12.695312 C 32.25 15.984375 33.074219 20.371094 33.363281 23.710938 C 33.496094 25.292969 33.53125 26.886719 33.285156 27.957031 C 33.164062 28.484375 32.90625 28.882812 32.722656 29.125 C 32.167969 29.863281 31.449219 30.414062 30.742188 30.917969 L 30.386719 31.164062 C 30.160156 31.324219 29.921875 31.484375 29.6875 31.636719 L 28.992188 32.089844 L 28.035156 32.683594 L 27.265625 33.15625 C 26.609375 33.570312 25.808594 33.234375 25.476562 32.410156 C 25.21875 31.761719 25.328125 31 25.710938 30.507812 L 25.132812 29.058594 C 23.570312 29.667969 21.824219 30 20 30 C 18.175781 30 16.429688 29.667969 14.867188 29.058594 L 14.289062 30.503906 C 14.671875 30.996094 14.785156 31.761719 14.527344 32.410156 C 14.195312 33.234375 13.394531 33.570312 12.738281 33.15625 L 12.011719 32.707031 C 11.207031 32.210938 10.402344 31.710938 9.617188 31.164062 C 8.800781 30.59375 7.929688 29.984375 7.28125 29.125 C 7.097656 28.882812 6.839844 28.484375 6.71875 27.957031 C 6.472656 26.886719 6.507812 25.292969 6.644531 23.710938 C 6.929688 20.371094 7.753906 15.984375 8.941406 12.695312 C 9.511719 11.113281 10.25 9.558594 11.199219 8.667969 C 12.222656 7.707031 13.660156 7.253906 14.875 6.886719 C 15.222656 6.78125 15.65625 6.667969 16 6.667969 C 16.738281 6.667969 17.332031 7.414062 17.332031 8.332031 C 17.332031 8.417969 17.328125 8.5 17.320312 8.578125 C 18.183594 8.417969 19.078125 8.332031 20 8.332031 C 20.921875 8.332031 21.820312 8.417969 22.683594 8.578125 C 22.675781 8.5 22.671875 8.417969 22.671875 8.332031 C 22.671875 7.414062 23.269531 6.667969 24.003906 6.667969 Z M 25.808594 10.605469 C 25.609375 10.523438 25.5625 10.558594 25.488281 10.710938 L 25.40625 10.894531 C 24.953125 11.875 24.058594 12.316406 23.226562 12.089844 C 22.222656 11.816406 21.136719 11.667969 20 11.667969 C 18.863281 11.667969 17.777344 11.816406 16.773438 12.089844 C 15.941406 12.316406 15.046875 11.875 14.59375 10.894531 L 14.511719 10.710938 C 14.441406 10.5625 14.390625 10.527344 14.195312 10.605469 C 13.71875 10.792969 13.210938 10.996094 12.800781 11.332031 C 12.417969 11.691406 11.90625 12.585938 11.371094 14.0625 C 10.351562 16.894531 9.550781 21.074219 9.292969 24.0625 C 9.242188 24.695312 9.214844 25.238281 9.207031 25.683594 L 9.207031 26.175781 C 9.210938 26.472656 9.230469 26.707031 9.253906 26.878906 C 9.589844 27.292969 10.011719 27.617188 10.429688 27.914062 L 11.339844 28.542969 L 11.933594 28.933594 L 12.421875 27.722656 C 12 27.230469 11.871094 26.433594 12.140625 25.757812 C 12.472656 24.9375 13.273438 24.601562 13.929688 25.015625 C 15.550781 26.03125 17.660156 26.667969 20 26.667969 C 22.335938 26.667969 24.449219 26.03125 26.070312 25.015625 C 26.726562 24.601562 27.527344 24.9375 27.859375 25.757812 C 28.105469 26.371094 28.019531 27.085938 27.6875 27.578125 L 27.578125 27.722656 L 28.066406 28.9375 C 28.460938 28.679688 28.863281 28.410156 29.261719 28.132812 C 29.78125 27.773438 30.328125 27.394531 30.75 26.878906 C 30.773438 26.707031 30.792969 26.472656 30.796875 26.175781 L 30.796875 25.683594 C 30.789062 25.238281 30.765625 24.695312 30.710938 24.0625 C 30.453125 21.074219 29.652344 16.894531 28.632812 14.0625 C 28.097656 12.585938 27.585938 11.691406 27.203125 11.332031 C 26.796875 10.996094 26.285156 10.792969 25.808594 10.605469 Z M 15.667969 17.5 C 16.957031 17.5 18 18.804688 18 20.417969 C 18 22.027344 16.957031 23.332031 15.667969 23.332031 C 14.378906 23.332031 13.332031 22.027344 13.332031 20.417969 C 13.332031 18.804688 14.378906 17.5 15.667969 17.5 Z M 24.332031 17.5 C 25.621094 17.5 26.667969 18.804688 26.667969 20.417969 C 26.667969 22.027344 25.621094 23.332031 24.332031 23.332031 C 23.042969 23.332031 22 22.027344 22 20.417969 C 22 18.804688 23.042969 17.5 24.332031 17.5 Z M 24.332031 17.5 "/>
</svg>
