<svg width="35" height="54" viewBox="0 0 35 54" fill="none" xmlns="http://www.w3.org/2000/svg">
<circle cx="10.5752" cy="39.582" r="10.5041" transform="rotate(-89.7072 10.5752 39.582)" fill="white"/>
<circle cx="11.2656" cy="12.7722" r="11.0569" transform="rotate(-89.7072 11.2656 12.7722)" fill="#F977BC"/>
<circle cx="11.1282" cy="12.6324" r="9.53659" transform="rotate(-89.7072 11.1282 12.6324)" fill="white"/>
<path d="M20.1699 43.1612C22.8147 46.0806 23.7477 49.0028 21.1797 53.7332C26.0603 52.8776 29.1285 50.4779 31.1375 48.2365C35.9609 41.2166 34.7656 32.2287 28.143 26.9995C34.5474 22.8935 35.9424 10.1372 31.3553 5.61803C26.7682 1.09887 25.1751 0.567189 21.4538 0.107888C24.0584 4.63184 23.4579 7.39291 19.9795 11.0194C14.2932 18.2604 14.6624 21.6329 18.9228 26.9523C13.9046 32.8669 14.7146 36.4564 20.1699 43.1612Z" fill="#EA1889"/>
<circle cx="10.4451" cy="38.0606" r="4.28456" transform="rotate(-89.7072 10.4451 38.0606)" fill="black"/>
<path d="M10.6851 32.6407C12.1773 33.2532 11.5936 34.0205 11.2236 35.8455C10.7454 37.629 10.0416 37.9732 8.71901 37.4303C7.3964 36.8874 6.76434 35.3751 7.30726 34.0525C7.85017 32.7299 9.36248 32.0978 10.6851 32.6407Z" fill="white"/>
</svg>
