<svg
  xmlns="http://www.w3.org/2000/svg" width="40px"
  height="40px"
  viewBox="0 0 40 40"
  fillRule="nonzero">
<path d="M 14.503906 19.609375 C 19.667969 19.609375 23.855469 15.402344 23.855469 10.210938 C 23.855469 5.019531 19.667969 0.8125 14.503906 0.8125 C 9.339844 0.8125 5.152344 5.019531 5.152344 10.210938 C 5.152344 15.402344 9.339844 19.609375 14.503906 19.609375 Z M 14.503906 19.609375 "/>
<path d="M 31.3125 13.617188 C 33.90625 13.617188 36.011719 11.503906 36.011719 8.894531 C 36.011719 6.285156 33.90625 4.171875 31.3125 4.171875 C 28.714844 4.171875 26.613281 6.285156 26.613281 8.894531 C 26.613281 11.503906 28.714844 13.617188 31.3125 13.617188 Z M 31.3125 13.617188 "/>
<path d="M 4.699219 27.558594 C 7.292969 27.558594 9.398438 25.445312 9.398438 22.835938 C 9.398438 20.226562 7.292969 18.113281 4.699219 18.113281 C 2.105469 18.113281 0 20.226562 0 22.835938 C 0 25.445312 2.105469 27.558594 4.699219 27.558594 Z M 4.699219 27.558594 "/>
<path d="M 30.136719 35.777344 C 35.527344 35.777344 39.894531 31.386719 39.894531 25.96875 C 39.894531 20.550781 35.527344 16.160156 30.136719 16.160156 C 24.746094 16.160156 20.378906 20.550781 20.378906 25.96875 C 20.378906 31.386719 24.746094 35.777344 30.136719 35.777344 Z M 30.136719 35.777344 "/>
<path d="M 13.464844 39.183594 C 16.707031 39.183594 19.339844 36.539062 19.339844 33.28125 C 19.339844 30.019531 16.707031 27.375 13.464844 27.375 C 10.21875 27.375 7.589844 30.019531 7.589844 33.28125 C 7.589844 36.539062 10.21875 39.183594 13.464844 39.183594 Z M 13.464844 39.183594 "/>
</svg>
