<svg xmlns="http://www.w3.org/2000/svg" width="40px" height="40px" fillRule="nonzero" viewBox="0 0 40 40" >
<path d="M 0 20 L 0 40 L 40 40 L 40 0 L 0 0 Z M 36.160156 2.347656 C 36.386719 2.40625 36.507812 2.496094 37.015625 3.015625 C 37.34375 3.34375 37.652344 3.695312 37.703125 3.792969 C 37.792969 3.960938 37.800781 5.035156 37.816406 20.3125 C 37.828125 34.789062 37.816406 36.6875 37.742188 36.953125 C 37.675781 37.195312 37.566406 37.347656 37.1875 37.742188 C 36.9375 38.011719 36.605469 38.304688 36.460938 38.386719 L 36.199219 38.542969 L 19.714844 38.542969 C 3.65625 38.542969 3.222656 38.542969 3.027344 38.433594 C 2.714844 38.269531 1.828125 37.371094 1.707031 37.109375 C 1.605469 36.878906 1.601562 36.320312 1.601562 20.429688 L 1.59375 3.988281 L 1.738281 3.75 C 1.953125 3.378906 2.914062 2.484375 3.210938 2.382812 C 3.429688 2.304688 5.273438 2.292969 19.675781 2.292969 C 31.605469 2.285156 35.964844 2.304688 36.160156 2.347656 Z M 36.160156 2.347656 "/>
<path style=" stroke:none;fill-rule:nonzero;fill:rgb(0%,0%,0%);fill-opacity:1;" d="M 35.816406 20.152344 L 35.800781 36.542969 L 19.703125 36.558594 L 3.601562 36.570312 L 3.601562 4.335938 L 3.246094 4.355469 L 2.886719 4.371094 L 2.867188 20.457031 L 2.855469 36.539062 L 3.621094 37.3125 L 35.804688 37.3125 L 36.160156 36.953125 L 36.515625 36.601562 L 36.515625 20.484375 L 36.519531 4.371094 L 36.21875 4.074219 C 36.050781 3.910156 35.898438 3.777344 35.875 3.769531 C 35.847656 3.769531 35.824219 11.144531 35.816406 20.152344 Z M 35.816406 20.152344 "/>
<path style=" stroke:none;fill-rule:nonzero;fill:rgb(0%,0%,0%);fill-opacity:1;" d="M 5.421875 5.164062 C 4.949219 5.332031 4.621094 5.644531 4.457031 6.085938 C 4.355469 6.34375 4.371094 6.867188 4.484375 7.089844 C 4.644531 7.398438 4.804688 7.605469 4.863281 7.570312 C 4.890625 7.546875 4.914062 7.566406 4.914062 7.601562 C 4.914062 7.640625 4.953125 7.652344 5.003906 7.632812 C 5.070312 7.613281 5.089844 7.621094 5.070312 7.667969 C 5.050781 7.726562 5.183594 7.742188 5.652344 7.742188 C 6.210938 7.742188 6.273438 7.730469 6.484375 7.59375 C 6.613281 7.507812 6.789062 7.359375 6.878906 7.261719 C 6.996094 7.148438 7.0625 7.109375 7.089844 7.148438 C 7.160156 7.261719 7.269531 6.972656 7.304688 6.59375 C 7.324219 6.28125 7.308594 6.1875 7.175781 5.921875 C 6.851562 5.25 6.089844 4.925781 5.421875 5.164062 Z M 5.421875 5.164062 "/>
<path style=" stroke:none;fill-rule:nonzero;fill:rgb(0%,0%,0%);fill-opacity:1;" d="M 33.199219 5.136719 C 32.753906 5.273438 32.304688 5.703125 32.183594 6.101562 C 32.023438 6.621094 32.160156 7.175781 32.527344 7.519531 C 32.753906 7.730469 33.023438 7.847656 32.988281 7.714844 C 32.984375 7.6875 33.058594 7.691406 33.160156 7.71875 C 33.421875 7.792969 33.804688 7.78125 34.023438 7.691406 C 34.125 7.652344 34.320312 7.507812 34.453125 7.382812 C 34.6875 7.160156 34.902344 7.023438 34.828125 7.144531 C 34.8125 7.175781 34.816406 7.199219 34.851562 7.199219 C 34.9375 7.199219 35.050781 6.761719 35.039062 6.46875 C 35.035156 6.136719 34.789062 5.644531 34.527344 5.429688 C 34.183594 5.148438 33.59375 5.015625 33.199219 5.136719 Z M 33.199219 5.136719 "/>
<path style=" stroke:none;fill-rule:nonzero;fill:rgb(0%,0%,0%);fill-opacity:1;" d="M 30.578125 15.238281 L 30.570312 19.144531 L 30.410156 19.144531 C 30.285156 19.144531 30.023438 19.378906 28.941406 20.457031 L 27.628906 21.769531 L 23.507812 21.769531 L 23.144531 22.144531 C 22.792969 22.496094 22.78125 22.515625 22.929688 22.515625 L 23.085938 22.515625 L 23.074219 24.296875 L 23.058594 26.085938 L 19.71875 26.097656 C 17.886719 26.101562 16.378906 26.121094 16.367188 26.132812 C 16.308594 26.1875 16.539062 26.675781 16.695312 26.839844 L 16.878906 27.027344 L 22.902344 27.027344 L 23.101562 26.800781 L 23.308594 26.578125 L 23.308594 23.058594 L 23.507812 22.875 L 23.707031 22.6875 L 27.800781 22.6875 L 29.304688 21.183594 L 30.800781 19.679688 L 30.789062 15.707031 C 30.769531 12.144531 30.761719 11.71875 30.675781 11.542969 C 30.589844 11.355469 30.582031 11.558594 30.578125 15.238281 Z M 30.578125 15.238281 "/>
<path style=" stroke:none;fill-rule:nonzero;fill:rgb(0%,0%,0%);fill-opacity:1;" d="M 15.65625 12.769531 C 15.308594 13.125 15.296875 13.144531 15.445312 13.144531 L 15.601562 13.144531 L 15.601562 17.320312 L 12.230469 17.304688 C 10.371094 17.292969 8.855469 17.304688 8.855469 17.320312 C 8.855469 17.492188 9.074219 17.914062 9.234375 18.058594 L 9.433594 18.230469 L 15.371094 18.230469 L 15.578125 18.039062 L 15.78125 17.851562 L 15.78125 15.804688 L 15.789062 13.753906 L 15.988281 13.53125 L 16.1875 13.3125 L 19.910156 13.324219 C 21.953125 13.335938 23.675781 13.367188 23.726562 13.386719 C 23.800781 13.429688 23.824219 13.40625 23.839844 13.308594 C 23.851562 13.230469 23.910156 13.164062 23.984375 13.144531 C 24.097656 13.113281 24.078125 13.085938 23.765625 12.753906 L 23.429688 12.398438 L 16.023438 12.398438 Z M 15.65625 12.769531 "/>
<path style=" stroke:none;fill-rule:nonzero;fill:rgb(0%,0%,0%);fill-opacity:1;" d="M 23.074219 30.257812 L 23.058594 32.085938 L 19.726562 32.097656 C 17.890625 32.101562 16.378906 32.113281 16.367188 32.132812 C 16.308594 32.1875 16.539062 32.675781 16.695312 32.839844 L 16.878906 33.027344 L 22.890625 33.027344 L 23.089844 32.824219 L 23.285156 32.621094 L 23.285156 30.726562 C 23.285156 29.074219 23.273438 28.800781 23.1875 28.628906 C 23.097656 28.433594 23.097656 28.503906 23.074219 30.257812 Z M 23.074219 30.257812 "/>
<path style=" stroke:none;fill-rule:nonzero;fill:rgb(0%,0%,0%);fill-opacity:1;" d="M 5.324219 32.929688 C 5.0625 33.011719 4.65625 33.386719 4.519531 33.675781 C 4.359375 34 4.359375 34.527344 4.507812 34.867188 C 4.640625 35.148438 4.929688 35.457031 5.023438 35.398438 C 5.058594 35.382812 5.085938 35.394531 5.085938 35.421875 C 5.085938 35.457031 5.125 35.484375 5.175781 35.484375 C 5.222656 35.484375 5.25 35.460938 5.234375 35.433594 C 5.21875 35.40625 5.320312 35.417969 5.472656 35.460938 C 5.9375 35.605469 6.40625 35.460938 6.816406 35.050781 C 6.996094 34.875 7.046875 34.847656 7.085938 34.914062 C 7.152344 35.027344 7.261719 34.75 7.304688 34.355469 C 7.378906 33.546875 6.707031 32.851562 5.875 32.863281 C 5.675781 32.867188 5.429688 32.898438 5.324219 32.929688 Z M 5.324219 32.929688 "/>
<path style=" stroke:none;fill-rule:nonzero;fill:rgb(0%,0%,0%);fill-opacity:1;" d="M 32.996094 32.9375 C 32.707031 33.0625 32.335938 33.433594 32.210938 33.714844 C 32.039062 34.089844 32.058594 34.605469 32.246094 34.925781 C 32.324219 35.0625 32.453125 35.230469 32.527344 35.292969 C 32.667969 35.421875 33.058594 35.578125 33 35.480469 C 32.976562 35.445312 33.015625 35.441406 33.125 35.46875 C 33.386719 35.542969 33.851562 35.507812 34.050781 35.398438 C 34.152344 35.347656 34.355469 35.199219 34.492188 35.074219 C 34.628906 34.949219 34.765625 34.863281 34.800781 34.886719 C 34.890625 34.941406 35.027344 34.554688 35.027344 34.238281 C 35.027344 33.71875 34.667969 33.207031 34.144531 32.964844 C 33.867188 32.839844 33.257812 32.824219 32.996094 32.9375 Z M 32.996094 32.9375 "/>
</svg>
