<svg
  xmlns="http://www.w3.org/2000/svg"
  width="40px"
  height="40px"
  viewBox="0 0 40 40"
  fillRule="nonzero"
>
<path d="M 19.511719 22.589844 L 18.539062 22.589844 C 18.035156 22.589844 17.625 22.230469 17.625 21.789062 C 17.625 21.625 17.699219 21.46875 17.835938 21.355469 C 18.398438 20.875 18.875 20.226562 19.21875 19.527344 C 19.289062 19.574219 19.367188 19.605469 19.449219 19.605469 C 19.996094 19.605469 20.640625 18.550781 20.640625 17.828125 C 20.640625 17.109375 20.5625 16.527344 20.015625 16.527344 C 19.953125 16.527344 19.882812 16.535156 19.8125 16.550781 C 19.773438 14.597656 19.210938 12.160156 15.804688 12.160156 C 12.25 12.160156 11.832031 14.59375 11.792969 16.542969 C 11.742188 16.535156 11.695312 16.527344 11.648438 16.527344 C 11.101562 16.527344 11.023438 17.109375 11.023438 17.828125 C 11.023438 18.550781 11.664062 19.605469 12.214844 19.605469 C 12.28125 19.605469 12.34375 19.589844 12.402344 19.558594 C 12.746094 20.246094 13.214844 20.882812 13.773438 21.359375 C 13.90625 21.472656 13.980469 21.628906 13.980469 21.792969 C 13.980469 22.234375 13.570312 22.59375 13.066406 22.59375 L 12.09375 22.59375 C 10.011719 22.59375 8.324219 24.066406 8.324219 25.890625 L 8.324219 26.804688 C 8.324219 27.378906 8.855469 27.84375 9.515625 27.84375 L 22.089844 27.84375 C 22.746094 27.84375 23.28125 27.378906 23.28125 26.804688 L 23.28125 25.890625 C 23.28125 24.066406 21.59375 22.589844 19.511719 22.589844 Z M 19.511719 22.589844 "/>
<path d="M 30.796875 13.542969 L 20.25 13.542969 C 20.554688 14.132812 20.769531 14.859375 20.859375 15.753906 C 21.085938 15.875 21.253906 16.074219 21.394531 16.308594 L 30.796875 16.308594 C 31.285156 16.308594 31.675781 15.964844 31.675781 15.539062 L 31.675781 14.3125 C 31.675781 13.890625 31.285156 13.542969 30.796875 13.542969 Z M 30.796875 13.542969 "/>
<path d="M 30.796875 18.585938 L 21.609375 18.585938 C 21.359375 19.410156 20.746094 20.269531 19.894531 20.5 C 19.871094 20.542969 19.839844 20.578125 19.816406 20.617188 L 19.816406 21.351562 L 30.792969 21.351562 C 31.28125 21.351562 31.675781 21.007812 31.675781 20.578125 L 31.675781 19.355469 C 31.675781 18.929688 31.285156 18.585938 30.796875 18.585938 Z M 30.796875 18.585938 "/>
<path d="M 30.796875 23.625 L 23.625 23.625 C 24.097656 24.28125 24.375 25.054688 24.375 25.886719 L 24.375 26.394531 L 30.796875 26.394531 C 31.285156 26.394531 31.675781 26.046875 31.675781 25.621094 L 31.675781 24.398438 C 31.675781 23.972656 31.285156 23.625 30.796875 23.625 Z M 30.796875 23.625 "/>
<path d="M 34.585938 5.851562 L 5.417969 5.851562 C 2.425781 5.851562 0 7.972656 0 10.589844 L 0 29.410156 C 0 32.03125 2.425781 34.152344 5.417969 34.152344 L 34.585938 34.152344 C 37.578125 34.152344 40 32.03125 40 29.410156 L 40 10.589844 C 40 7.972656 37.578125 5.851562 34.585938 5.851562 Z M 37.445312 29.410156 C 37.445312 30.792969 36.160156 31.914062 34.585938 31.914062 L 5.417969 31.914062 C 3.839844 31.914062 2.558594 30.792969 2.558594 29.410156 L 2.558594 10.589844 C 2.558594 9.210938 3.839844 8.085938 5.417969 8.085938 L 34.585938 8.085938 C 36.160156 8.085938 37.445312 9.210938 37.445312 10.589844 Z M 37.445312 29.410156 "/>
</svg>
